<?xml version="1.0" encoding="UTF-8" standalone="no"?>
<svg
   version="1.1"
   width="24"
   height="24"
   viewBox="0 0 24 24"
   id="svg4"
   sodipodi:docname="receipt.svg"
   inkscape:version="1.1 (1:1.1+202105261517+ce6663b3b7)"
   xmlns:inkscape="http://www.inkscape.org/namespaces/inkscape"
   xmlns:sodipodi="http://sodipodi.sourceforge.net/DTD/sodipodi-0.dtd"
   xmlns="http://www.w3.org/2000/svg"
   xmlns:svg="http://www.w3.org/2000/svg"
   xmlns:rdf="http://www.w3.org/1999/02/22-rdf-syntax-ns#"
   xmlns:cc="http://creativecommons.org/ns#"
   xmlns:dc="http://purl.org/dc/elements/1.1/">
  <metadata
     id="metadata10">
    <rdf:RDF>
      <cc:Work
         rdf:about="">
        <dc:format>image/svg+xml</dc:format>
        <dc:type
           rdf:resource="http://purl.org/dc/dcmitype/StillImage" />
      </cc:Work>
    </rdf:RDF>
  </metadata>
  <defs
     id="defs8">
    <filter
       inkscape:collect="always"
       style="color-interpolation-filters:sRGB"
       id="filter6049"
       x="-0.12666667"
       width="1.2533333"
       y="-0.114"
       height="1.228">
      <feGaussianBlur
         inkscape:collect="always"
         stdDeviation="0.95"
         id="feGaussianBlur6051" />
    </filter>
  </defs>
  <sodipodi:namedview
     pagecolor="#3a3a3a"
     bordercolor="#666666"
     borderopacity="1"
     objecttolerance="10"
     gridtolerance="10"
     guidetolerance="10"
     inkscape:pageopacity="0"
     inkscape:pageshadow="2"
     inkscape:window-width="1920"
     inkscape:window-height="1144"
     id="namedview6"
     showgrid="false"
     inkscape:zoom="9.8333333"
     inkscape:cx="-2.5932203"
     inkscape:cy="11.949153"
     inkscape:window-x="1280"
     inkscape:window-y="0"
     inkscape:window-maximized="1"
     inkscape:current-layer="svg4"
     inkscape:pagecheckerboard="false" />
  <path
     id="path7"
     d="M3,22L4.5,20.5L6,22L7.5,20.5L9,22L10.5,20.5L12,22L13.5,20.5L15,22L16.5,20.5L18,22L19.5,20.5L21,22V2L19.5,3.5L18,2L16.5,3.5L15,2L13.5,3.5L12,2L10.5,3.5L9,2L7.5,3.5L6,2L4.5,3.5L3,2M18,9H6V7H18M18,13H6V11H18M18,17H6V15H18V17Z"
     style="filter:url(#filter6049);fill:#ffffff;fill-opacity:1" />
  <rect
     style="fill:#ffffff;fill-opacity:1"
     id="rect6053"
     width="14.440678"
     height="12.81356"
     x="4.7796612"
     y="5.5932202" />
  <path
     d="M3,22L4.5,20.5L6,22L7.5,20.5L9,22L10.5,20.5L12,22L13.5,20.5L15,22L16.5,20.5L18,22L19.5,20.5L21,22V2L19.5,3.5L18,2L16.5,3.5L15,2L13.5,3.5L12,2L10.5,3.5L9,2L7.5,3.5L6,2L4.5,3.5L3,2M18,9H6V7H18M18,13H6V11H18M18,17H6V15H18V17Z"
     id="path2" />
</svg>
